<mxfile host="app.diagrams.net" modified="2020-12-27T11:32:43.471Z" agent="5.0 (Macintosh; Intel Mac OS X 10_15_5) AppleWebKit/605.1.15 (KHTML, like Gecko) Version/13.1.1 Safari/605.1.15" etag="06-PvWdqdpCO7xKMbPiV" version="14.1.1" type="github">
  <diagram id="vKARxAbjLVexTtq7-mZn" name="Page-1">
    <mxGraphModel dx="485" dy="556" grid="1" gridSize="10" guides="1" tooltips="1" connect="1" arrows="1" fold="1" page="1" pageScale="1" pageWidth="827" pageHeight="1169" math="0" shadow="0">
      <root>
        <mxCell id="0" />
        <mxCell id="1" parent="0" />
        <mxCell id="ZwWkG_DAqcvmQ9jbDbZS-1" value="Diagnostic Reports" style="rounded=1;whiteSpace=wrap;html=1;fillColor=#fff2cc;strokeColor=#d6b656;" parent="1" vertex="1">
          <mxGeometry x="40" y="40" width="200" height="40" as="geometry" />
        </mxCell>
        <mxCell id="ZwWkG_DAqcvmQ9jbDbZS-2" value="Condition" style="rounded=1;whiteSpace=wrap;html=1;fillColor=#fff2cc;strokeColor=#d6b656;" parent="1" vertex="1">
          <mxGeometry x="250" y="40" width="200" height="40" as="geometry" />
        </mxCell>
        <mxCell id="ZwWkG_DAqcvmQ9jbDbZS-3" value="Encounter" style="rounded=1;whiteSpace=wrap;html=1;fillColor=#fff2cc;strokeColor=#d6b656;" parent="1" vertex="1">
          <mxGeometry x="40" y="90" width="90" height="40" as="geometry" />
        </mxCell>
        <mxCell id="ZwWkG_DAqcvmQ9jbDbZS-4" value="Procedure" style="rounded=1;whiteSpace=wrap;html=1;fillColor=#fff2cc;strokeColor=#d6b656;" parent="1" vertex="1">
          <mxGeometry x="250" y="90" width="90" height="40" as="geometry" />
        </mxCell>
        <mxCell id="ZwWkG_DAqcvmQ9jbDbZS-5" value="AdverseEvent" style="rounded=1;whiteSpace=wrap;html=1;fillColor=#fff2cc;strokeColor=#d6b656;" parent="1" vertex="1">
          <mxGeometry x="360" y="90" width="90" height="40" as="geometry" />
        </mxCell>
        <mxCell id="ZwWkG_DAqcvmQ9jbDbZS-6" value="Observation" style="rounded=1;whiteSpace=wrap;html=1;fillColor=#fff2cc;strokeColor=#d6b656;" parent="1" vertex="1">
          <mxGeometry x="40" y="140" width="90" height="40" as="geometry" />
        </mxCell>
        <mxCell id="ZwWkG_DAqcvmQ9jbDbZS-7" value="Allergies" style="rounded=1;whiteSpace=wrap;html=1;fillColor=#fff2cc;strokeColor=#d6b656;" parent="1" vertex="1">
          <mxGeometry x="150" y="140" width="90" height="40" as="geometry" />
        </mxCell>
        <mxCell id="ZwWkG_DAqcvmQ9jbDbZS-8" value="Medications" style="rounded=1;whiteSpace=wrap;html=1;fillColor=#fff2cc;strokeColor=#d6b656;" parent="1" vertex="1">
          <mxGeometry x="250" y="138.2" width="90" height="40" as="geometry" />
        </mxCell>
        <mxCell id="ZwWkG_DAqcvmQ9jbDbZS-9" value="Patient" style="rounded=1;whiteSpace=wrap;html=1;fillColor=#fff2cc;strokeColor=#d6b656;" parent="1" vertex="1">
          <mxGeometry x="40" y="190" width="200" height="40" as="geometry" />
        </mxCell>
        <mxCell id="ZwWkG_DAqcvmQ9jbDbZS-10" value="CarePlan" style="rounded=1;whiteSpace=wrap;html=1;fillColor=#fff2cc;strokeColor=#d6b656;" parent="1" vertex="1">
          <mxGeometry x="250" y="190" width="200" height="40" as="geometry" />
        </mxCell>
        <mxCell id="ZwWkG_DAqcvmQ9jbDbZS-12" value="" style="line;strokeWidth=2;direction=south;html=1;" parent="1" vertex="1">
          <mxGeometry x="30" y="30" width="10" height="210" as="geometry" />
        </mxCell>
        <mxCell id="ZwWkG_DAqcvmQ9jbDbZS-14" value="" style="line;strokeWidth=2;direction=south;html=1;" parent="1" vertex="1">
          <mxGeometry x="460" y="70" width="10" height="170" as="geometry" />
        </mxCell>
        <mxCell id="ZwWkG_DAqcvmQ9jbDbZS-15" value="" style="line;strokeWidth=2;html=1;" parent="1" vertex="1">
          <mxGeometry x="30" y="30" width="440" height="10" as="geometry" />
        </mxCell>
        <mxCell id="ZwWkG_DAqcvmQ9jbDbZS-16" value="" style="line;strokeWidth=2;html=1;" parent="1" vertex="1">
          <mxGeometry x="30" y="230" width="440" height="10" as="geometry" />
        </mxCell>
        <mxCell id="ZwWkG_DAqcvmQ9jbDbZS-18" value="&lt;i&gt;&lt;b&gt;FHIR&lt;/b&gt; Patienten Profil&lt;/i&gt;" style="text;html=1;strokeColor=none;fillColor=none;align=center;verticalAlign=middle;whiteSpace=wrap;rounded=0;" parent="1" vertex="1">
          <mxGeometry x="440" y="30" width="140" height="50" as="geometry" />
        </mxCell>
        <mxCell id="ZwWkG_DAqcvmQ9jbDbZS-20" value="" style="endArrow=classic;startArrow=classic;html=1;exitX=0.3;exitY=0.1;exitDx=0;exitDy=0;exitPerimeter=0;" parent="1" source="ZwWkG_DAqcvmQ9jbDbZS-14" edge="1">
          <mxGeometry width="50" height="50" relative="1" as="geometry">
            <mxPoint x="469" y="160" as="sourcePoint" />
            <mxPoint x="560" y="180" as="targetPoint" />
            <Array as="points">
              <mxPoint x="560" y="120" />
            </Array>
          </mxGeometry>
        </mxCell>
        <mxCell id="ZwWkG_DAqcvmQ9jbDbZS-29" value="&lt;font style=&quot;font-size: 10px&quot;&gt;Read/wirte&lt;br&gt;using REST&lt;br&gt;&lt;/font&gt;" style="text;html=1;strokeColor=none;fillColor=none;align=center;verticalAlign=middle;whiteSpace=wrap;rounded=0;" parent="1" vertex="1">
          <mxGeometry x="480" y="100" width="100" as="geometry" />
        </mxCell>
        <mxCell id="EBEgYYdUMe3ZlOHBspKI-1" value="Immunization" style="rounded=1;whiteSpace=wrap;html=1;fillColor=#fff2cc;strokeColor=#d6b656;" vertex="1" parent="1">
          <mxGeometry x="150" y="90" width="90" height="40" as="geometry" />
        </mxCell>
        <mxCell id="EBEgYYdUMe3ZlOHBspKI-2" value="Claim" style="rounded=1;whiteSpace=wrap;html=1;fillColor=#fff2cc;strokeColor=#d6b656;" vertex="1" parent="1">
          <mxGeometry x="360" y="138.2" width="90" height="40" as="geometry" />
        </mxCell>
        <mxCell id="EBEgYYdUMe3ZlOHBspKI-3" value="" style="verticalLabelPosition=bottom;html=1;verticalAlign=top;align=center;strokeColor=#b85450;fillColor=#f8cecc;shape=mxgraph.azure.computer;pointerEvents=1;" vertex="1" parent="1">
          <mxGeometry x="540" y="190" width="50" height="45" as="geometry" />
        </mxCell>
      </root>
    </mxGraphModel>
  </diagram>
</mxfile>
